<?xml version="1.0" encoding="UTF-8"?>
<svg version="1.1" xmlns="http://www.w3.org/2000/svg" width="1120" height="1120">
<path d="M0 0 C1.2055957 0.13390137 2.41119141 0.26780273 3.65332031 0.40576172 C57.65008421 6.44034994 110.39541593 22.14873198 160 44 C161.53769043 44.67699951 161.53769043 44.67699951 163.10644531 45.36767578 C200.42639198 61.90597856 235.29122811 82.57767019 268 107 C268.86794189 107.64630371 268.86794189 107.64630371 269.75341797 108.30566406 C282.43959059 117.79493621 294.80769342 127.82945195 306.41015625 138.62109375 C307.77329822 139.87321058 309.14232583 141.12030586 310.5559082 142.31518555 C317.41369564 148.1321496 323.69250338 154.54210792 330.03637695 160.90600586 C332.05764268 162.9326298 334.08419574 164.95385547 336.11132812 166.97460938 C342.28503584 173.14480006 348.39568421 179.29980782 354 186 C354.97216814 187.11874566 355.94610731 188.23595497 356.921875 189.3515625 C363.87217114 197.37542251 370.54521831 205.57292391 377 214 C377.4846875 214.63164062 377.969375 215.26328125 378.46875 215.9140625 C395.00504768 237.53182666 409.65700381 260.28375087 423 284 C423.4846875 284.85964355 423.969375 285.71928711 424.46875 286.60498047 C459.38587547 348.81247646 480.88328451 417.3025383 489.74285889 487.97137451 C489.98668607 489.89496439 490.24322242 491.81693082 490.50048828 493.73876953 C495.97007095 535.90602787 495.61497116 581.88218974 490 624 C489.83081431 625.35352683 489.66288114 626.70721071 489.49609375 628.06103516 C485.49204242 660.26351113 478.68431656 692.02423496 469 723 C468.62649414 724.20140625 468.25298828 725.4028125 467.86816406 726.640625 C444.97172717 799.5431851 406.77540902 869.51773562 355 926 C353.82899526 927.32952503 352.66215171 928.66272954 351.5 930 C343.95814949 938.63444167 336.19987271 946.96205326 328.0793457 955.05102539 C326.43258596 956.69239796 324.79127905 958.33908819 323.15039062 959.98632812 C317.60513807 965.53507906 311.9772555 970.91431551 306 976 C304.39231627 977.45445517 302.78760285 978.91220895 301.1875 980.375 C273.03409888 1005.68762119 241.04572832 1027.60553547 208 1046 C206.54231201 1046.81404297 206.54231201 1046.81404297 205.05517578 1047.64453125 C142.11680688 1082.62235458 73.40636945 1104.92167825 2 1114 C0.85869629 1114.15243164 -0.28260742 1114.30486328 -1.45849609 1114.46191406 C-68.44399432 1123.06146645 -138.6642871 1117.16732535 -204 1101 C-205.06943848 1100.7417041 -206.13887695 1100.4834082 -207.24072266 1100.21728516 C-236.13959035 1093.18123559 -264.92367219 1083.3112678 -292 1071 C-293.02673828 1070.53433624 -293.02673828 1070.53433624 -294.07421875 1070.05926514 C-313.71613169 1061.13652769 -332.98165611 1051.93591286 -351.37109375 1040.60839844 C-354.03180752 1038.98053975 -356.71397674 1037.3953508 -359.40625 1035.8203125 C-368.7168049 1030.35789083 -377.67494019 1024.64082045 -386.34667969 1018.21337891 C-388.04251669 1016.96879682 -389.75555361 1015.75246887 -391.4765625 1014.54296875 C-399.87715432 1008.63704873 -407.99568133 1002.43165114 -416 996 C-416.93457031 995.24976563 -417.86914062 994.49953125 -418.83203125 993.7265625 C-436.26974445 979.5823559 -452.60702247 964.47157907 -468.5 948.625 C-469.01882751 948.10885132 -469.53765503 947.59270264 -470.07220459 947.06091309 C-475.93527719 941.22083657 -481.63684981 935.30849027 -487 929 C-488.04496001 927.80821404 -489.09182112 926.61809215 -490.140625 925.4296875 C-497.38512157 917.16587634 -504.32919086 908.7327382 -511 900 C-511.4832373 899.36980957 -511.96647461 898.73961914 -512.46435547 898.09033203 C-519.97067634 888.27813192 -527.12728018 878.26529648 -534 868 C-534.43103027 867.36078613 -534.86206055 866.72157227 -535.30615234 866.06298828 C-582.0866595 796.428419 -611.485027 715.82154531 -622.8125 632.875 C-622.91186859 632.15609589 -623.01123718 631.43719177 -623.11361694 630.69650269 C-626.33374824 607.08413031 -627.38042152 583.52844311 -627.31805801 559.71862793 C-627.31241231 557.52848232 -627.30959523 555.33834448 -627.30697632 553.14819336 C-627.27014496 531.95711932 -626.8047949 511.03872236 -624 490 C-623.83081431 488.64647317 -623.66288114 487.29278929 -623.49609375 485.93896484 C-613.19940241 403.13358671 -583.9967534 324.57380469 -492 190.9375 C-491.53803223 190.39617432 -491.07606445 189.85484863 -490.60009766 189.29711914 C-489.07630847 187.52287653 -487.53988553 185.76029029 -486 184 C-485.40711182 183.31591064 -484.81422363 182.63182129 -484.20336914 181.92700195 C-477.34417619 174.1465839 -470.00356543 166.85208443 -462.66137695 159.53100586 C-460.43520138 157.31020693 -458.21444368 155.08409034 -455.99414062 152.85742188 C-454.55761229 151.42155416 -453.12077389 149.98599657 -451.68359375 148.55078125 C-451.03128281 147.89644608 -450.37897186 147.2421109 -449.70689392 146.56794739 C-445.29852912 142.18160348 -440.72027486 138.04740147 -436 134 C-435.01257813 133.14277344 -434.02515625 132.28554687 -433.0078125 131.40234375 C-408.31965878 110.29363779 -381.90338142 91.5994761 -354 75 C-353.05688965 74.43410156 -352.1137793 73.86820312 -351.14208984 73.28515625 C-334.21065285 63.15733094 -316.91361595 54.21754697 -299 46 C-297.8955957 45.48872559 -296.79119141 44.97745117 -295.65332031 44.45068359 C-266.10917765 30.88719618 -234.90837522 20.52192394 -203.34375 12.81738281 C-200.1395155 12.03410469 -196.94500198 11.2184206 -193.75 10.3984375 C-174.4093779 5.5590745 -154.74045822 2.64451201 -135 0 C-134.31603149 -0.09408142 -133.63206299 -0.18816284 -132.92736816 -0.28509521 C-89.81721587 -6.19172317 -43.14810122 -5.24373248 0 0 Z " fill="#2F7FC4" transform="translate(627,3)"/>
<path d="M0 0 C1.19496094 -0.00386719 2.38992188 -0.00773438 3.62109375 -0.01171875 C14.91898734 0.00052165 26.02029411 0.34711029 37 3.1875 C38.26831665 3.512948 38.26831665 3.512948 39.56225586 3.8449707 C55.07165464 8.03160105 69.33652246 15.28888954 83.3515625 23.01025391 C85.13374367 23.99208779 86.92554116 24.95642336 88.71875 25.91796875 C89.6159375 26.41941406 90.513125 26.92085937 91.4375 27.4375 C92.17097656 27.84613281 92.90445313 28.25476563 93.66015625 28.67578125 C95.375 30.125 95.375 30.125 96.328125 32.63671875 C97.6770336 35.84289329 98.9150874 36.27542033 102.0625 37.625 C106.65226879 39.75667781 110.54132664 41.79137099 114.375 45.125 C114.8125 47.9375 114.8125 47.9375 114.375 50.125 C116.355 50.455 118.335 50.785 120.375 51.125 C120.375 52.445 120.375 53.765 120.375 55.125 C121.41720703 55.13080078 121.41720703 55.13080078 122.48046875 55.13671875 C127.0101182 56.68327922 128.94908084 60.14801529 131.6875 63.9375 C132.54734497 65.10925781 132.54734497 65.10925781 133.42456055 66.3046875 C134.56780539 67.87006095 135.70507003 69.43982169 136.8359375 71.01416016 C138.08362945 72.72538233 139.39254761 74.39184678 140.71875 76.04296875 C162.34133272 104.40115759 157.85866556 148.87563929 158.01717687 182.45573521 C158.04778661 188.1971994 158.09593405 193.93851703 158.1424408 199.67987061 C158.23796196 211.78358176 158.31675104 223.88735636 158.39154053 235.99121094 C158.50382263 254.14932347 158.62907082 272.30733625 158.77076811 290.4652431 C158.81452646 296.14017222 158.85448449 301.8150716 158.88484383 307.49008942 C159.00063282 329.09693053 159.22540636 350.68178047 160.22045898 372.26855469 C160.25458771 373.07906107 160.28871643 373.88956746 160.32387936 374.72463465 C160.91306172 388.29942534 162.10965036 401.79116182 168.125 414.1875 C168.46917969 414.93064453 168.81335938 415.67378906 169.16796875 416.43945312 C172.01194333 422.52847562 175.03167977 428.53431098 178.125 434.5 C179.375 437.125 179.375 437.125 179.375 439.125 C180.45587891 439.14433594 180.45587891 439.14433594 181.55859375 439.1640625 C185.83561668 440.62335188 187.17774683 443.74189426 189.4375 447.5 C192.47011795 452.68903676 192.47011795 452.68903676 196.68359375 456.8515625 C197.52083984 457.48191406 197.52083984 457.48191406 198.375 458.125 C198.375 459.445 198.375 460.765 198.375 462.125 C200.025 462.455 201.675 462.785 203.375 463.125 C203.39949219 463.71410156 203.42398437 464.30320312 203.44921875 464.91015625 C204.89325549 468.36487706 207.93619942 469.132206 211.1875 470.5625 C217.82700261 473.67940061 223.95254198 477.25846517 230.0625 481.3125 C231.31377686 482.14152832 231.31377686 482.14152832 232.59033203 482.98730469 C234.3102387 484.12692695 236.03012783 485.26657567 237.75 486.40625 C248.46320883 493.42085102 259.44605729 500.038691 270.5 506.5 C291.41302979 518.73311313 291.41302979 518.73311313 294.375 523.125 C295.38172872 527.35766966 295.48122922 531.28613851 293.18798828 535.09814453 C288.03425794 540.98301078 282.07258703 545.00973352 275.5 549.1875 C266.8583389 554.72636496 266.8583389 554.72636496 258.62890625 560.84765625 C254.70284476 563.97355492 250.67800046 566.28825303 246.1875 568.5 C239.8041038 571.73777993 233.78306683 575.25823858 227.92895508 579.38232422 C224.60630163 581.64539732 222.40943365 582.59568393 218.375 582.125 C218.47925293 582.87571777 218.58350586 583.62643555 218.69091797 584.39990234 C218.375 587.125 218.375 587.125 216.27392578 588.98681641 C214.81188721 589.84799072 214.81188721 589.84799072 213.3203125 590.7265625 C212.23886963 591.37608887 211.15742676 592.02561523 210.04321289 592.69482422 C208.86216728 593.37992652 207.68109577 594.06498418 206.5 594.75 C205.30409728 595.46306483 204.10935809 596.17808454 202.91577148 596.89501953 C199.41424036 598.99257144 195.89651952 601.06117334 192.375 603.125 C174.97085485 612.85793171 174.97085485 612.85793171 161.375 627.125 C160.02004195 633.38614104 160.25053813 639.96748123 160.30908203 646.33886719 C160.31375488 647.31726059 160.31842773 648.29565399 160.32324219 649.30369568 C160.33368372 651.41198623 160.34632552 653.52026683 160.36096573 655.62853241 C160.38310467 658.96591867 160.39710679 662.30324725 160.40866089 665.64068604 C160.44215701 675.12398108 160.48407047 684.60717948 160.54638672 694.09033203 C160.58401045 699.90377816 160.60704644 705.71712813 160.62069321 711.5306778 C160.62874684 713.74269557 160.64235479 715.95470037 160.66162491 718.16664886 C160.68807283 721.25412455 160.69599383 724.34113613 160.69970703 727.42871094 C160.7120639 728.34101974 160.72442078 729.25332855 160.7371521 730.19328308 C160.72186062 735.00932454 160.50833779 738.2132587 157.375 742.125 C151.11503878 747.60246606 143.20076332 746.47415225 135.375 746.125 C121.43863086 745.04243052 109.79090606 742.17801139 100.1015625 731.65625 C94.375 724.8245614 94.375 724.8245614 94.375 720.125 C93.66472656 720.12113281 92.95445312 720.11726562 92.22265625 720.11328125 C87.77915505 718.57116081 86.21575825 715.20254081 83.8125 711.3125 C83.32797363 710.54583008 82.84344727 709.77916016 82.34423828 708.98925781 C78.15687613 702.16572522 75.19833867 695.29818986 73.93359375 687.3515625 C73.74925781 686.61679687 73.56492187 685.88203125 73.375 685.125 C72.611875 684.83625 71.84875 684.5475 71.0625 684.25 C67.81835928 682.89198761 66.70023802 681.1566297 65.08984375 678.078125 C63.98748336 675.06621137 64.11723051 672.2826762 64.375 669.125 C63.055 669.125 61.735 669.125 60.375 669.125 C60.10429688 668.46757813 59.83359375 667.81015625 59.5546875 667.1328125 C55.88327095 659.02052084 51.0299919 652.48389369 45.40185547 645.62158203 C42.55552991 642.1133203 40.15398951 638.90984859 38.3203125 634.765625 C36.49567241 630.8072156 34.38190057 629.87159769 30.375 628.125 C27.953125 625.671875 27.953125 625.671875 25.625 622.875 C21.55931894 618.19761312 17.50967857 614.8475528 12.2109375 611.66015625 C11.30214844 610.90025391 11.30214844 610.90025391 10.375 610.125 C10.375 608.805 10.375 607.485 10.375 606.125 C9.32505859 605.97611328 9.32505859 605.97611328 8.25390625 605.82421875 C-3.34843751 603.0062818 -14.19862596 593.32412156 -23.7578125 586.55078125 C-27.95647543 583.58145656 -32.18994496 580.68019036 -36.5 577.875 C-38.07394531 576.84632813 -38.07394531 576.84632813 -39.6796875 575.796875 C-42.61112316 574.13287704 -45.39694141 573.06932759 -48.625 572.125 C-48.625 570.475 -48.625 568.825 -48.625 567.125 C-49.44484375 567.0425 -50.2646875 566.96 -51.109375 566.875 C-55.46393509 565.94602718 -58.95299897 564.17938149 -62.875 562.125 C-63.95394531 561.57199219 -63.95394531 561.57199219 -65.0546875 561.0078125 C-66.91480533 560.05337002 -68.7702379 559.08980898 -70.625 558.125 C-71.285 557.795 -71.945 557.465 -72.625 557.125 C-72.625 555.475 -72.625 553.825 -72.625 552.125 C-73.63175781 552.19976563 -74.63851562 552.27453125 -75.67578125 552.3515625 C-80.14710096 552.09504762 -83.0451021 550.71400638 -86.8125 548.5 C-88.12004708 547.76116543 -89.42865779 547.0242103 -90.73828125 546.2890625 C-91.71015381 545.73847168 -91.71015381 545.73847168 -92.70166016 545.17675781 C-96.50793306 543.0953382 -100.48020473 541.33730719 -104.4296875 539.546875 C-107.08074544 537.82981968 -106.965895 537.06376173 -107.625 534.125 C-109.38669525 533.34645291 -109.38669525 533.34645291 -111.5625 533 C-118.24188808 531.05806928 -122.19712848 526.26037702 -126.625 521.125 C-127.12644531 520.58101562 -127.62789063 520.03703125 -128.14453125 519.4765625 C-132.09177656 514.20427018 -131.74155018 506.36090248 -131.03759766 500.07275391 C-129.91189524 494.75863918 -126.26473902 490.94322009 -122.625 487.125 C-121.98175781 486.42503906 -121.33851563 485.72507812 -120.67578125 485.00390625 C-119.04591664 483.30333168 -117.37517867 481.70016081 -115.625 480.125 C-114.92375 479.485625 -114.2225 478.84625 -113.5 478.1875 C-111.09909764 476.82698866 -109.33882576 476.89884785 -106.625 477.125 C-106.5412915 476.36026367 -106.45758301 475.59552734 -106.37133789 474.80761719 C-105.45328512 471.50779259 -104.56974884 470.94286419 -101.68359375 469.203125 C-100.87003418 468.69974609 -100.05647461 468.19636719 -99.21826172 467.67773438 C-97.93459717 466.90913086 -97.93459717 466.90913086 -96.625 466.125 C-94.96844435 465.0806709 -93.31348868 464.03379949 -91.66015625 462.984375 C-89.14730305 461.41062901 -86.63221312 459.84057689 -84.11523438 458.2734375 C-83.30505859 457.76554687 -82.49488281 457.25765625 -81.66015625 456.734375 C-80.9319165 456.28030273 -80.20367676 455.82623047 -79.45336914 455.35839844 C-77.4941226 454.12129222 -77.4941226 454.12129222 -75.625 452.125 C-73 452 -73 452 -70.625 452.125 C-70.58826172 451.02478516 -70.58826172 451.02478516 -70.55078125 449.90234375 C-69.20818342 445.87455026 -66.33536262 444.66688142 -62.8125 442.6875 C-54.99659449 438.09181602 -47.65199357 432.99077522 -40.3659668 427.59594727 C-39.15807495 426.72474243 -39.15807495 426.72474243 -37.92578125 425.8359375 C-36.86097534 425.05162354 -36.86097534 425.05162354 -35.7746582 424.25146484 C-33.22027777 422.91291728 -31.4692214 422.9090147 -28.625 423.125 C-28.625 421.805 -28.625 420.485 -28.625 419.125 C-27.738125 419.145625 -26.85125 419.16625 -25.9375 419.1875 C-22.58845904 418.48598706 -22.58845904 418.48598706 -21.32421875 416.23046875 C-20.51102096 414.63321055 -19.70659439 413.03146201 -18.91015625 411.42578125 C-16.98341822 407.9763931 -14.91574478 406.29549124 -11.625 404.125 C-10.305 404.125 -8.985 404.125 -7.625 404.125 C-7.52574219 403.37992188 -7.42648437 402.63484375 -7.32421875 401.8671875 C-6.5405313 398.7937317 -5.55002272 397.57237597 -3.4375 395.25 C15.1617368 372.21143919 9.54774772 334.05924281 9.61328125 306.4453125 C9.61734688 304.96350974 9.6214642 303.48170711 9.62563133 301.99990463 C9.64453201 295.04597105 9.65880878 288.09204723 9.6672433 281.13809311 C9.67704489 273.19817807 9.70350426 265.25853955 9.74374419 257.31872189 C9.77408961 251.11248577 9.7887283 244.90632846 9.79202431 238.70001972 C9.79434783 235.02202442 9.80295326 231.34432977 9.82848549 227.66641617 C9.92934647 212.35609241 9.77455054 197.88712619 5.375 183.125 C4.99194489 181.76304352 4.61009266 180.40074814 4.22944641 179.03811646 C0.43047813 165.91015944 -6.74010357 154.77171004 -15.52612305 144.42333984 C-17.55255437 141.95809688 -18.59081403 140.47841556 -18.90234375 137.2578125 C-18.76505859 136.20207031 -18.76505859 136.20207031 -18.625 135.125 C-19.36878906 135.19203125 -20.11257813 135.2590625 -20.87890625 135.328125 C-24.25960477 135.07805911 -25.16694857 134.20686601 -27.5625 131.875 C-29.98807859 129.58749989 -32.25176063 127.62883949 -35.125 125.9375 C-35.95 125.339375 -36.775 124.74125 -37.625 124.125 C-37.625 122.805 -37.625 121.485 -37.625 120.125 C-38.28886719 119.93164062 -38.95273437 119.73828125 -39.63671875 119.5390625 C-48.40707381 116.95276801 -48.40707381 116.95276801 -52.625 115.125 C-52.625 113.805 -52.625 112.485 -52.625 111.125 C-53.31464844 111.01542969 -54.00429688 110.90585937 -54.71484375 110.79296875 C-59.29354059 110.02043142 -63.68934236 109.20866186 -68.0625 107.625 C-72.66214298 105.97512806 -77.29639122 105.25713461 -82.12109375 104.5546875 C-84.625 104.125 -84.625 104.125 -86.625 103.125 C-94.09318323 102.0825369 -101.63593919 101.94697673 -109.1640625 101.84375 C-111.31119835 101.80601395 -113.45833375 101.76825284 -115.60546875 101.73046875 C-118.95229135 101.67652765 -122.29913492 101.62424408 -125.64599609 101.57275391 C-128.90209993 101.52126467 -132.15806469 101.46400186 -135.4140625 101.40625 C-136.42433502 101.39267456 -137.43460754 101.37909912 -138.47549438 101.3651123 C-139.40091034 101.34839478 -140.32632629 101.33167725 -141.27978516 101.31445312 C-142.09710114 101.30192505 -142.91441711 101.28939697 -143.75650024 101.27648926 C-145.625 101.125 -145.625 101.125 -146.625 100.125 C-147.55450799 90.36516613 -143.99591264 83.94350757 -138.0625 76.375 C-136.59369253 74.61629632 -135.11336895 72.86718021 -133.625 71.125 C-132.69201139 70.00709171 -131.75976006 68.8885678 -130.828125 67.76953125 C-125.93672729 61.93319533 -120.92975703 56.21542519 -115.625 50.75 C-114.75875 49.85539062 -113.8925 48.96078125 -113 48.0390625 C-110.625 46.125 -110.625 46.125 -106.625 46.125 C-106.5425 45.37476563 -106.46 44.62453125 -106.375 43.8515625 C-103.82197976 34.57027018 -86.60723225 26.99108817 -78.625 22.125 C-77.96677246 21.72104004 -77.30854492 21.31708008 -76.63037109 20.90087891 C-59.87280616 10.81244348 -39.92857658 4.14455388 -20.625 1.125 C-19.63242187 0.94195312 -18.63984375 0.75890625 -17.6171875 0.5703125 C-11.78880446 -0.24183923 -5.87063147 -0.01863693 0 0 Z " fill="#FEFEFE" transform="translate(563.625,149.875)"/>
<path d="M0 0 C1.68138062 -0.00809692 1.68138062 -0.00809692 3.39672852 -0.01635742 C9.61254772 0.03667464 15.4666667 0.55874337 21.55639648 1.81884766 C24.0513642 2.3228765 26.5389132 2.6728349 29.0625 3 C37.39713652 4.47010353 45.21126106 8.10789234 53 11.3125 C53 12.6325 53 13.9525 53 15.3125 C54.2065625 15.374375 54.2065625 15.374375 55.4375 15.4375 C60.24596224 16.61852581 64.39001189 18.8870224 68 22.3125 C68 23.6325 68 24.9525 68 26.3125 C69.32 26.3125 70.64 26.3125 72 26.3125 C72 27.6325 72 28.9525 72 30.3125 C72.721875 30.3125 73.44375 30.3125 74.1875 30.3125 C79.09912998 32.05885733 80.72975011 36.74575538 82.9453125 41.22265625 C85.84630873 47.63019648 86.20623224 53.5221946 86.25 60.4375 C86.2809375 61.62472656 86.2809375 61.62472656 86.3125 62.8359375 C86.381343 73.50660203 82.73627092 82.71286324 78.125 92.1875 C77.64522705 93.17999756 77.1654541 94.17249512 76.67114258 95.19506836 C71.96156631 104.72853466 66.49737935 113.69774072 60.73535156 122.62402344 C58.26988036 126.44363077 55.83402466 130.28189029 53.39575195 134.11889648 C52.21502418 135.97450554 51.03148449 137.82832987 49.84448242 139.67993164 C49.29896729 140.53192139 48.75345215 141.38391113 48.19140625 142.26171875 C47.65918457 143.08849121 47.12696289 143.91526367 46.57861328 144.76708984 C45.48435295 146.53151271 44.43862777 148.3266087 43.43310547 150.14306641 C42.9279541 151.0510498 42.42280273 151.9590332 41.90234375 152.89453125 C41.24286743 154.12973511 41.24286743 154.12973511 40.57006836 155.38989258 C39 157.3125 39 157.3125 36.31860352 158.08862305 C35.17089478 158.19944214 35.17089478 158.19944214 34 158.3125 C33.83564453 159.18261719 33.83564453 159.18261719 33.66796875 160.0703125 C32.6856635 164.90996277 31.45178089 168.96616116 29 173.3125 C27.68 173.3125 26.36 173.3125 25 173.3125 C24.67 176.2825 24.34 179.2525 24 182.3125 C22.35 182.3125 20.7 182.3125 19 182.3125 C18.84072021 182.93068604 18.68144043 183.54887207 18.51733398 184.18579102 C16.78706244 190.45541773 14.42058384 195.6999165 11.0625 201.25 C10.57797363 202.06863525 10.09344727 202.88727051 9.59423828 203.73071289 C5.8188662 210.06564898 1.8958769 216.30619797 -2.07568359 222.51953125 C-7.63824508 231.24259848 -12.9678005 240.10619522 -18.30126953 248.97045898 C-18.83434471 249.85374878 -18.83434471 249.85374878 -19.37818909 250.75488281 C-20.35018703 252.36547525 -21.31982486 253.97749134 -22.28930664 255.58959961 C-23.13609985 256.9374353 -23.13609985 256.9374353 -24 258.3125 C-24.48654053 259.09310791 -24.97308105 259.87371582 -25.47436523 260.67797852 C-25.97782471 261.21737061 -26.48128418 261.7567627 -27 262.3125 C-28.32 262.3125 -29.64 262.3125 -31 262.3125 C-31.18820312 263.53453125 -31.37640625 264.7565625 -31.5703125 266.015625 C-33.05150801 272.66408426 -36.49362256 278.21567832 -39.875 284.0625 C-40.81279297 285.72732422 -40.81279297 285.72732422 -41.76953125 287.42578125 C-47.68775549 297.82333799 -47.68775549 297.82333799 -51 301.3125 C-52.32 301.3125 -53.64 301.3125 -55 301.3125 C-55.14695312 302.61574219 -55.14695312 302.61574219 -55.296875 303.9453125 C-56.06242467 307.61144481 -57.30568745 310.00051813 -59.25 313.1875 C-59.87648438 314.22519531 -60.50296875 315.26289062 -61.1484375 316.33203125 C-63.09534398 319.46597565 -65.04511065 322.59719024 -67.0546875 325.69140625 C-68.16659057 327.47107754 -68.16659057 327.47107754 -69 330.3125 C-70.32 330.6425 -71.64 330.9725 -73 331.3125 C-73.66 334.2825 -74.32 337.2525 -75 340.3125 C-76.32 340.6425 -77.64 340.9725 -79 341.3125 C-80.25193072 343.49718108 -81.25510999 345.57524441 -82.25 347.875 C-88.52066651 361.35951384 -97.46508391 373.41401911 -105.96484375 385.5625 C-106.38193604 386.15909424 -106.79902832 386.75568848 -107.22875977 387.37036133 C-108.27709174 388.86080136 -109.33717475 390.3429582 -110.3984375 391.82421875 C-111.96590186 394.25952314 -113.02902098 396.59081638 -114 399.3125 C-115.32 399.3125 -116.64 399.3125 -118 399.3125 C-118.309375 400.488125 -118.61875 401.66375 -118.9375 402.875 C-121.42368597 410.28730327 -125.83521229 416.75264192 -130 423.3125 C-130.4021875 423.94623535 -130.804375 424.5799707 -131.21875 425.23291016 C-135.46045055 431.88605825 -139.78368932 438.48534474 -144.1477356 445.05879211 C-145.66288997 447.34302367 -147.17297229 449.63059012 -148.68286133 451.91830444 C-149.77894842 453.57430915 -150.88252423 455.22534958 -151.98632812 456.8762207 C-159.65684105 468.49547507 -164.94284192 480.06199435 -169 493.3125 C-169.32226562 494.28316406 -169.64453125 495.25382812 -169.9765625 496.25390625 C-175.84420085 515.09067048 -169.84308994 536.24575069 -160.99609375 553.171875 C-156.3624069 561.81820737 -151.1391616 569.64735177 -145 577.3125 C-144.29488281 578.22644531 -143.58976563 579.14039063 -142.86328125 580.08203125 C-141.19432413 582.38188582 -141.19432413 582.38188582 -139 583.3125 C-139 583.9725 -139 584.6325 -139 585.3125 C-138.46375 585.539375 -137.9275 585.76625 -137.375 586 C-134.19328252 587.75831756 -131.65536551 589.83415886 -129 592.3125 C-128.87842529 592.97185547 -128.75685059 593.63121094 -128.6315918 594.31054688 C-128.1645205 596.52539082 -128.1645205 596.52539082 -125.87036133 597.71289062 C-124.9502124 598.12732422 -124.03006348 598.54175781 -123.08203125 598.96875 C-122.07462891 599.43410156 -121.06722656 599.89945313 -120.02929688 600.37890625 C-118.96775391 600.85199219 -117.90621094 601.32507813 -116.8125 601.8125 C-104.0810959 607.59162839 -104.0810959 607.59162839 -99 611.3125 C-99.33 612.6325 -99.66 613.9525 -100 615.3125 C-109.20712787 615.35925499 -118.41421361 615.39458498 -127.62143517 615.41612434 C-131.89870838 615.42647259 -136.17589919 615.44046354 -140.453125 615.46337891 C-144.59639903 615.48543259 -148.73959484 615.49713555 -152.88292313 615.50225449 C-154.44781345 615.5058929 -156.01270048 615.51299337 -157.57755661 615.52396011 C-199.13823702 615.80310148 -232.21355012 604.30171543 -264.19335938 577.79003906 C-266.54503993 575.86674572 -268.96125467 574.03196577 -271.375 572.1875 C-290.47922707 556.77675683 -303.15879188 533.2352655 -311 510.3125 C-311.42732422 509.06919922 -311.42732422 509.06919922 -311.86328125 507.80078125 C-321.50100735 476.31754266 -319.51034366 439.4077799 -305.0625 409.875 C-302.74638144 405.0710415 -300.54909512 400.29049699 -298.625 395.3125 C-295.30707115 387.17355372 -290.55784208 379.80001304 -286 372.3125 C-284.47600716 369.79356559 -282.95575235 367.27239811 -281.4375 364.75 C-281.06898926 364.13817871 -280.70047852 363.52635742 -280.32080078 362.89599609 C-272.14707451 349.26834111 -264.63520986 335.24552166 -257 321.3125 C-255.68 321.3125 -254.36 321.3125 -253 321.3125 C-252.91008789 320.29663818 -252.82017578 319.28077637 -252.72753906 318.23413086 C-251.93508903 313.96261244 -250.58390379 311.28094461 -248.359375 307.56640625 C-247.99531555 306.95159897 -247.6312561 306.33679169 -247.25616455 305.70335388 C-246.09820129 303.75390959 -244.92442294 301.81456263 -243.75 299.875 C-242.97681832 298.57809714 -242.20467374 297.2805754 -241.43359375 295.98242188 C-238.36087314 290.82380138 -235.2558756 285.68913611 -232.03515625 280.62109375 C-230.13772741 277.53640617 -228.95683077 274.79188462 -228 271.3125 C-226.35 271.3125 -224.7 271.3125 -223 271.3125 C-222.87431641 269.56453125 -222.87431641 269.56453125 -222.74609375 267.78125 C-222.15668348 263.13134441 -220.45742412 259.78689397 -218.0625 255.8125 C-217.65990967 255.12019287 -217.25731934 254.42788574 -216.8425293 253.71459961 C-213.72139371 248.3925783 -210.42193891 243.18452649 -207.10620117 237.98242188 C-200.62359234 227.69423297 -194.87383214 216.95516075 -189 206.3125 C-187.35 206.3125 -185.7 206.3125 -184 206.3125 C-183.67 203.3425 -183.34 200.3725 -183 197.3125 C-181.68 197.3125 -180.36 197.3125 -179 197.3125 C-178.95875 196.219375 -178.9175 195.12625 -178.875 194 C-177.55262982 184.10798411 -170.20758824 175.47300556 -164.93701172 167.24853516 C-160.81531717 160.75340342 -157.02703552 154.10978019 -153.3125 147.375 C-148.20118631 138.11924251 -142.88587402 129.02101318 -137.375 120 C-137.01378052 119.40843109 -136.65256104 118.81686218 -136.28039551 118.20736694 C-134.51157665 115.31217384 -132.74002169 112.41867584 -130.96728516 109.52587891 C-122.9956659 96.50497389 -115.24524392 83.40376035 -107.95458984 69.98803711 C-107.04196256 68.38615449 -106.02265364 66.84648045 -105 65.3125 C-103.68 65.3125 -102.36 65.3125 -101 65.3125 C-100.67 62.0125 -100.34 58.7125 -100 55.3125 C-98.68 55.3125 -97.36 55.3125 -96 55.3125 C-96 53.6625 -96 52.0125 -96 50.3125 C-94.68 50.3125 -93.36 50.3125 -92 50.3125 C-91.82984375 49.73242188 -91.6596875 49.15234375 -91.484375 48.5546875 C-89.93223502 43.55151289 -88.40696825 39.33891702 -85 35.3125 C-83.68 35.3125 -82.36 35.3125 -81 35.3125 C-80.92265625 34.57515625 -80.8453125 33.8378125 -80.765625 33.078125 C-78.0430414 23.24348629 -62.38983339 15.45599876 -53.92578125 10.51953125 C-47.12646408 6.91989275 -40.53610762 4.76441064 -33 3.3125 C-32.35804688 3.17714844 -31.71609375 3.04179687 -31.0546875 2.90234375 C-20.70621593 0.75125696 -10.56683748 0.03106831 0 0 Z " fill="#FEFEFE" transform="translate(449,282.6875)"/>
<path d="M0 0 C3.73836941 0.02534488 6.24662457 0.32430488 8.9453125 3.046875 C10.88849296 6.0276761 12.55879876 9.10315941 14.1796875 12.265625 C15.04508646 13.92603488 15.91101178 15.58617048 16.77734375 17.24609375 C18.20569797 19.98594361 19.62966716 22.72749883 21.0378418 25.4777832 C24.21563977 31.63108048 27.64646328 37.25254352 31.81640625 42.79296875 C33.4752934 45.80178126 33.44078529 47.88120654 33.1796875 51.265625 C34.4996875 51.265625 35.8196875 51.265625 37.1796875 51.265625 C37.64117188 52.21179688 38.10265625 53.15796875 38.578125 54.1328125 C46.07305944 69.38261 54.32181239 84.04025261 63.35327148 98.43261719 C67.33943851 104.8156605 71.05324422 111.30540026 74.63037109 117.92504883 C77.90817696 123.9384213 81.61501502 129.55893509 85.5625 135.15234375 C87.4502339 138.78645949 87.49470668 141.22626613 87.1796875 145.265625 C87.94321533 145.33265625 88.70674316 145.3996875 89.4934082 145.46875 C92.1796875 146.265625 92.1796875 146.265625 93.78198242 148.3125 C94.23677979 149.20453125 94.69157715 150.0965625 95.16015625 151.015625 C95.67908447 152.00780029 96.1980127 152.99997559 96.73266602 154.0222168 C97.27205811 155.0925415 97.8114502 156.16286621 98.3671875 157.265625 C99.52362322 159.48173245 100.68249108 161.69657238 101.84375 163.91015625 C102.41125977 165.00021973 102.97876953 166.0902832 103.56347656 167.21337891 C105.67403791 171.19921546 107.92373766 175.08556149 110.2421875 178.953125 C111.04858266 180.30705019 111.85456751 181.66121983 112.66015625 183.015625 C113.26996338 184.04042969 113.26996338 184.04042969 113.89208984 185.0859375 C120.5092089 196.28761345 126.86807394 207.63401924 133.0546875 219.078125 C137.37150462 227.05944974 141.8441366 234.93564987 146.4296875 242.765625 C147.31527344 244.27987061 147.31527344 244.27987061 148.21875 245.82470703 C150.74241589 250.13241714 153.276426 254.43300584 155.84375 258.71484375 C156.58079235 259.96090013 157.31777747 261.20699036 158.0546875 262.453125 C158.67085937 263.47792969 159.28703125 264.50273438 159.921875 265.55859375 C161.24201285 268.39975998 161.46215808 270.17539681 161.1796875 273.265625 C161.91445313 273.25402344 162.64921875 273.24242187 163.40625 273.23046875 C167.23738323 274.66039876 167.750003 276.64130438 169.41235352 280.24487305 C169.78932373 281.09734619 170.16629395 281.94981934 170.5546875 282.828125 C174.4245559 291.08399451 178.82519319 298.77702457 183.7421875 306.453125 C188.25325435 313.53142884 192.66321471 320.60833688 196.6171875 328.015625 C196.98851807 328.70035889 197.35984863 329.38509277 197.74243164 330.09057617 C199.516967 333.49303781 200.1796875 335.33814986 200.1796875 339.265625 C201.4996875 339.265625 202.8196875 339.265625 204.1796875 339.265625 C207.21776346 345.2131734 210.23896537 351.16908541 213.24951172 357.13061523 C214.27184284 359.15040129 215.29778172 361.16836603 216.32763672 363.18432617 C225.65687302 381.45673008 234.50286245 399.28412073 234.48046875 420.19921875 C234.48475388 421.11663345 234.489039 422.03404816 234.49345398 422.97926331 C234.499159 424.91121605 234.49972605 426.84319025 234.49536133 428.77514648 C234.49222889 431.66494486 234.51561356 434.55368907 234.54101562 437.44335938 C234.64041631 463.90631262 228.23495772 483.93777564 216.3046875 507.265625 C215.51226019 508.83034418 214.72058978 510.39544692 213.9296875 511.9609375 C212.02167274 515.73362275 210.10364777 519.50104829 208.1796875 523.265625 C206.5296875 523.265625 204.8796875 523.265625 203.1796875 523.265625 C203.1384375 524.214375 203.0971875 525.163125 203.0546875 526.140625 C201.95321122 533.80441774 195.98613719 542.24595711 190.1796875 547.265625 C189.3134375 547.430625 188.4471875 547.595625 187.5546875 547.765625 C186.7709375 547.930625 185.9871875 548.095625 185.1796875 548.265625 C184.17817971 549.90142105 183.19001232 551.54851637 182.3046875 553.25 C171.59182011 572.44388741 143.13240441 584.25799517 123.171875 590.16015625 C121.84220541 590.53245113 120.51153568 590.90120065 119.1796875 591.265625 C118.06851563 591.57886719 116.95734375 591.89210938 115.8125 592.21484375 C96.57872059 597.13120881 76.78972249 596.55116027 57.10638428 596.46124268 C54.11450321 596.45039632 51.12266802 596.45077544 48.13077068 596.45138073 C45.20590472 596.45110636 42.28106712 596.44558408 39.35621071 596.43837929 C37.97978745 596.43524609 36.60336105 596.43323809 35.22693443 596.43248558 C3.3099297 596.3958672 3.3099297 596.3958672 -2.8203125 590.265625 C-3.01866692 587.77930647 -3.09310982 585.40439842 -3.07910156 582.91699219 C-3.0826062 582.15890259 -3.08611084 581.40081299 -3.08972168 580.61975098 C-3.09855732 578.10057535 -3.09267649 575.58167877 -3.0859375 573.0625 C-3.0872853 571.30527696 -3.0892268 569.54805428 -3.09173584 567.79083252 C-3.09469094 564.09521967 -3.0903833 560.39970323 -3.08105469 556.70410156 C-3.06976018 552.00397256 -3.07615289 547.3040745 -3.08819962 542.60395432 C-3.09549409 538.96614913 -3.09309413 535.32839685 -3.08794403 531.6905899 C-3.08662313 529.96052268 -3.0881996 528.23045043 -3.09290314 526.5003891 C-3.15774914 495.89428977 -3.15774914 495.89428977 2.1796875 486.265625 C4.93794417 483.75278382 7.90381963 482.02241786 11.1796875 480.265625 C12.0665625 479.646875 12.9534375 479.028125 13.8671875 478.390625 C16.76661714 476.98009166 18.99718574 477.04358999 22.1796875 477.265625 C22.1796875 475.615625 22.1796875 473.965625 22.1796875 472.265625 C27.57037163 468.67183558 30.71642285 467.81206257 37.1796875 468.265625 C37.07140625 467.51410156 36.963125 466.76257813 36.8515625 465.98828125 C37.1796875 463.265625 37.1796875 463.265625 39.3203125 461.44921875 C40.34640625 460.87300781 41.3725 460.29679687 42.4296875 459.703125 C43.6133953 459.0184263 44.79698063 458.33351584 45.98046875 457.6484375 C46.64127441 457.27493164 47.30208008 456.90142578 47.98291016 456.51660156 C52.23019483 454.09794334 56.41947158 451.58143835 60.6171875 449.078125 C61.89480957 448.32970337 61.89480957 448.32970337 63.19824219 447.56616211 C66.8816584 445.38289955 70.35931206 443.23378081 73.59765625 440.421875 C76.1796875 438.265625 76.1796875 438.265625 79.0546875 437.953125 C79.7559375 438.05625 80.4571875 438.159375 81.1796875 438.265625 C81.1796875 436.945625 81.1796875 435.625625 81.1796875 434.265625 C81.81777344 434.15605469 82.45585938 434.04648437 83.11328125 433.93359375 C84.35271484 433.69576172 84.35271484 433.69576172 85.6171875 433.453125 C86.44089844 433.30230469 87.26460937 433.15148437 88.11328125 432.99609375 C88.79519531 432.75503906 89.47710938 432.51398438 90.1796875 432.265625 C90.5096875 431.275625 90.8396875 430.285625 91.1796875 429.265625 C92.8296875 429.265625 94.4796875 429.265625 96.1796875 429.265625 C96.06625 428.52183594 95.9528125 427.77804687 95.8359375 427.01171875 C96.1796875 424.265625 96.1796875 424.265625 98.5234375 422.23828125 C99.565 421.60792969 100.6065625 420.97757813 101.6796875 420.328125 C106.17753185 417.53288447 110.37711034 414.66424126 114.4609375 411.296875 C116.1796875 410.265625 116.1796875 410.265625 120.1796875 410.265625 C120.28023437 409.15767578 120.28023437 409.15767578 120.3828125 408.02734375 C121.41994334 404.43297362 123.01548325 403.37586296 125.9296875 401.078125 C133.00780659 394.87209508 136.24160142 389.43126863 136.8659668 380.00366211 C137.07734717 372.37210187 135.84764432 365.84572868 132.9921875 358.765625 C132.70118164 358.04173584 132.41017578 357.31784668 132.11035156 356.57202148 C130.71683958 353.47470586 129.79455043 351.57548483 126.70703125 350.01953125 C125.45599609 349.64634766 125.45599609 349.64634766 124.1796875 349.265625 C122.72481892 348.12524869 121.31034419 346.93230676 119.9296875 345.703125 C115.70396273 342.2322149 111.46837955 339.70502242 106.6171875 337.265625 C97.84752142 332.83280473 89.68346308 327.5896769 81.45703125 322.22753906 C74.4348202 317.66180786 67.34339085 313.3073751 59.953125 309.35961914 C58.01953125 308.28125 58.01953125 308.28125 55.1796875 306.265625 C55.1796875 304.945625 55.1796875 303.625625 55.1796875 302.265625 C54.2515625 302.100625 53.3234375 301.935625 52.3671875 301.765625 C46.64686708 300.12956628 41.34512961 296.446132 37.1796875 292.265625 C36.86328125 289.50390625 36.86328125 289.50390625 37.1796875 287.265625 C36.3134375 286.9975 35.4471875 286.729375 34.5546875 286.453125 C31.26176786 285.29450513 28.26840875 283.88352661 25.1796875 282.265625 C25.1796875 280.945625 25.1796875 279.625625 25.1796875 278.265625 C24.4371875 278.224375 23.6946875 278.183125 22.9296875 278.140625 C19.01144861 276.89391263 18.0631136 274.82320763 16.1796875 271.265625 C16.1796875 269.945625 16.1796875 268.625625 16.1796875 267.265625 C14.8596875 267.265625 13.5396875 267.265625 12.1796875 267.265625 C0.39409903 246.38495461 -3.13047942 228.11701188 -3.06323242 204.26489258 C-3.06430673 202.04802393 -3.06624761 199.83115555 -3.06898499 197.61428833 C-3.07380964 191.62542532 -3.06620973 185.63663744 -3.05603194 179.64778352 C-3.04722248 173.37689953 -3.04900938 167.1060177 -3.0493927 160.83512878 C-3.04845803 150.31837845 -3.03985093 139.80165235 -3.02612305 129.28491211 C-3.01200115 118.46068803 -3.00495397 107.63648927 -3.00561523 96.81225586 C-3.00565519 96.14389994 -3.00569515 95.47554402 -3.00573631 94.78693489 C-3.00577667 94.11973168 -3.00581702 93.45252847 -3.0058586 92.76510698 C-3.00651261 81.05479802 -3.00137568 69.34449762 -2.99306679 57.63419151 C-2.989529 52.64734504 -2.98770285 47.66050222 -2.98717308 42.67365456 C-2.9861725 36.81560347 -2.98009943 30.95757916 -2.97000694 25.0995369 C-2.9670741 22.94395931 -2.96585815 20.78837865 -2.96643448 18.63279915 C-2.96692142 15.70417054 -2.96130692 12.77561816 -2.95402527 9.84700012 C-2.95557387 8.98263503 -2.95712247 8.11826995 -2.958718 7.22771198 C-2.9305477 0.42763357 -2.9305477 0.42763357 0 0 Z " fill="#FEFEFE" transform="translate(754.8203125,301.734375)"/>
</svg>
